PathFileType	4	(X/Y/Z)	C:\Users\italobelli\Desktop\GitHub\PTbot_officialCBL\Personal_Results\FLX03_noisy2.trc
DataRate	CameraRate	NumFrames	NumMarkers	Units	OrigDataRate	OrigDataStartFrame	OrigNumFrames
106.125000	106.125000	47	9	m	106.125000	532	850
Frame#	Time		gu		centelbow		EpL		centpxt8		centijc7		ij		ts		aa		ai
			X1	Y1	Z1	X2	Y2	Z2	X3	Y3	Z3	X4	Y4	Z4	X5	Y5	Z5	X6	Y6	Z6	X7	Y7	Z7	X8	Y8	Z8	X9	Y9	Z9

532	5.0035	-0.088927	0.050527	0.12619	0.12942	0.095635	0.2463	0.11814	0.12579	0.24442	-0.046816	-0.15316	-0.008669	-0.046816	0.031938	-0.008669	0	0	0	-0.15377	-0.0052435	0.050736	-0.11858	0.073032	0.13355	-0.13421	-0.086905	0.12713
533	5.013	-0.088749	0.050288	0.12648	0.13039	0.092903	0.24681	0.11925	0.12316	0.24516	-0.046816	-0.15316	-0.008669	-0.046816	0.031938	-0.008669	0	0	0	-0.15376	-0.0051034	0.050706	-0.1184	0.07272	0.13386	-0.13435	-0.087144	0.12675
534	5.0224	-0.088566	0.050038	0.12677	0.13133	0.090135	0.24731	0.12035	0.12048	0.2459	-0.046816	-0.15316	-0.008669	-0.046816	0.031938	-0.008669	0	0	0	-0.15375	-0.0049635	0.050675	-0.11823	0.0724	0.13417	-0.13449	-0.087388	0.12636
535	5.0318	-0.088377	0.049777	0.12707	0.13223	0.087333	0.24782	0.12142	0.11777	0.24664	-0.046816	-0.15316	-0.008669	-0.046816	0.031938	-0.008669	0	0	0	-0.15374	-0.0048235	0.050642	-0.11806	0.072071	0.13449	-0.13462	-0.087638	0.12595
536	5.0412	-0.088185	0.049507	0.12736	0.1331	0.084498	0.24832	0.12246	0.11502	0.24738	-0.046816	-0.15316	-0.008669	-0.046816	0.031938	-0.008669	0	0	0	-0.15373	-0.0046836	0.050608	-0.11789	0.071734	0.13481	-0.13475	-0.087892	0.12554
537	5.0506	-0.087988	0.049227	0.12766	0.13393	0.081631	0.24881	0.12348	0.11223	0.24813	-0.046816	-0.15316	-0.008669	-0.046816	0.031938	-0.008669	0	0	0	-0.15371	-0.0045436	0.050572	-0.11772	0.07139	0.13513	-0.13487	-0.08815	0.12511
538	5.0601	-0.087787	0.048938	0.12796	0.13473	0.078733	0.24931	0.12448	0.10941	0.24887	-0.046816	-0.15316	-0.008669	-0.046816	0.031938	-0.008669	0	0	0	-0.15369	-0.0044035	0.050536	-0.11754	0.071037	0.13545	-0.13499	-0.088413	0.12467
539	5.0695	-0.087582	0.04864	0.12826	0.13549	0.075807	0.2498	0.12545	0.10656	0.24962	-0.046816	-0.15316	-0.008669	-0.046816	0.031938	-0.008669	0	0	0	-0.15366	-0.0042632	0.050497	-0.11737	0.070677	0.13578	-0.13511	-0.088679	0.12421
540	5.0789	-0.087375	0.048332	0.12856	0.13622	0.072853	0.25029	0.12639	0.10367	0.25036	-0.046816	-0.15316	-0.008669	-0.046816	0.031938	-0.008669	0	0	0	-0.15364	-0.0041228	0.050458	-0.1172	0.070309	0.1361	-0.13523	-0.088948	0.12375
541	5.0883	-0.087164	0.048016	0.12886	0.13692	0.069873	0.25078	0.1273	0.10075	0.25111	-0.046816	-0.15316	-0.008669	-0.046816	0.031938	-0.008669	0	0	0	-0.15361	-0.0039821	0.050418	-0.11703	0.069935	0.13643	-0.13535	-0.08922	0.12328
542	5.0978	-0.086951	0.047691	0.12916	0.13758	0.066868	0.25126	0.12819	0.097809	0.25185	-0.046816	-0.15316	-0.008669	-0.046816	0.031938	-0.008669	0	0	0	-0.15358	-0.0038411	0.050376	-0.11686	0.069554	0.13677	-0.13546	-0.089495	0.1228
543	5.1072	-0.086735	0.047358	0.12947	0.13821	0.06384	0.25173	0.12905	0.094837	0.25259	-0.046816	-0.15316	-0.008669	-0.046816	0.031938	-0.008669	0	0	0	-0.15355	-0.0036999	0.050334	-0.1167	0.069167	0.1371	-0.13557	-0.089771	0.12231
544	5.1166	-0.086517	0.047018	0.12977	0.1388	0.060789	0.25221	0.12988	0.091839	0.25333	-0.046816	-0.15316	-0.008669	-0.046816	0.031938	-0.008669	0	0	0	-0.15351	-0.0035582	0.05029	-0.11653	0.068774	0.13743	-0.13568	-0.09005	0.1218
545	5.126	-0.086298	0.046669	0.13008	0.13936	0.057718	0.25267	0.13069	0.088816	0.25407	-0.046816	-0.15316	-0.008669	-0.046816	0.031938	-0.008669	0	0	0	-0.15348	-0.0034162	0.050246	-0.11636	0.068375	0.13777	-0.13579	-0.09033	0.12129
546	5.1355	-0.086077	0.046313	0.13038	0.13989	0.054628	0.25313	0.13146	0.08577	0.2548	-0.046816	-0.15316	-0.008669	-0.046816	0.031938	-0.008669	0	0	0	-0.15344	-0.0032737	0.050201	-0.1162	0.06797	0.13811	-0.13589	-0.090611	0.12078
547	5.1449	-0.085855	0.04595	0.13069	0.14038	0.051519	0.25359	0.13221	0.082703	0.25553	-0.046816	-0.15316	-0.008669	-0.046816	0.031938	-0.008669	0	0	0	-0.1534	-0.0031307	0.050154	-0.11603	0.06756	0.13844	-0.136	-0.090893	0.12025
548	5.1543	-0.085632	0.04558	0.131	0.14083	0.048394	0.25404	0.13293	0.079614	0.25625	-0.046816	-0.15316	-0.008669	-0.046816	0.031938	-0.008669	0	0	0	-0.15335	-0.0029872	0.050108	-0.11587	0.067145	0.13878	-0.1361	-0.091176	0.11971
549	5.1637	-0.085408	0.045204	0.13131	0.14126	0.045254	0.25448	0.13361	0.076507	0.25697	-0.046816	-0.15316	-0.008669	-0.046816	0.031938	-0.008669	0	0	0	-0.15331	-0.0028431	0.05006	-0.11571	0.066725	0.13912	-0.1362	-0.091458	0.11917
550	5.1731	-0.085184	0.044821	0.13162	0.14164	0.0421	0.25492	0.13427	0.073383	0.25768	-0.046816	-0.15316	-0.008669	-0.046816	0.031938	-0.008669	0	0	0	-0.15326	-0.0026983	0.050012	-0.11555	0.0663	0.13946	-0.13629	-0.09174	0.11862
551	5.1826	-0.084961	0.044432	0.13192	0.142	0.038933	0.25534	0.1349	0.070242	0.25839	-0.046816	-0.15316	-0.008669	-0.046816	0.031938	-0.008669	0	0	0	-0.15322	-0.0025529	0.049963	-0.11539	0.065872	0.1398	-0.13639	-0.092021	0.11806
552	5.192	-0.084737	0.044037	0.13223	0.14232	0.035756	0.25577	0.1355	0.067086	0.25908	-0.046816	-0.15316	-0.008669	-0.046816	0.031938	-0.008669	0	0	0	-0.15317	-0.0024068	0.049914	-0.11524	0.065439	0.14014	-0.13649	-0.092301	0.1175
553	5.2014	-0.084514	0.043636	0.13254	0.1426	0.032569	0.25618	0.13606	0.063917	0.25978	-0.046816	-0.15316	-0.008669	-0.046816	0.031938	-0.008669	0	0	0	-0.15311	-0.0022599	0.049864	-0.11509	0.065003	0.14048	-0.13658	-0.09258	0.11693
554	5.2108	-0.084293	0.04323	0.13285	0.14285	0.029373	0.25658	0.1366	0.060736	0.26046	-0.046816	-0.15316	-0.008669	-0.046816	0.031938	-0.008669	0	0	0	-0.15306	-0.0021122	0.049814	-0.11494	0.064563	0.14082	-0.13668	-0.092857	0.11635
555	5.2203	-0.084072	0.042819	0.13317	0.14307	0.026171	0.25698	0.1371	0.057544	0.26113	-0.046816	-0.15316	-0.008669	-0.046816	0.031938	-0.008669	0	0	0	-0.15301	-0.0019636	0.049764	-0.11479	0.06412	0.14116	-0.13677	-0.093132	0.11577
556	5.2297	-0.083854	0.042403	0.13348	0.14325	0.022963	0.25737	0.13757	0.054343	0.2618	-0.046816	-0.15316	-0.008669	-0.046816	0.031938	-0.008669	0	0	0	-0.15295	-0.0018142	0.049713	-0.11464	0.063674	0.1415	-0.13686	-0.093404	0.11519
557	5.2391	-0.083637	0.041982	0.13379	0.1434	0.01975	0.25775	0.13801	0.051135	0.26246	-0.046816	-0.15316	-0.008669	-0.046816	0.031938	-0.008669	0	0	0	-0.1529	-0.0016638	0.049662	-0.1145	0.063226	0.14184	-0.13695	-0.093673	0.11459
558	5.2485	-0.083422	0.041557	0.1341	0.14351	0.016535	0.25812	0.13842	0.04792	0.2631	-0.046816	-0.15316	-0.008669	-0.046816	0.031938	-0.008669	0	0	0	-0.15284	-0.0015124	0.04961	-0.11435	0.062775	0.14218	-0.13704	-0.093939	0.114
559	5.258	-0.08321	0.041128	0.13441	0.14359	0.013319	0.25848	0.13879	0.0447	0.26374	-0.046816	-0.15316	-0.008669	-0.046816	0.031938	-0.008669	0	0	0	-0.15278	-0.0013601	0.049559	-0.11421	0.062322	0.14251	-0.13713	-0.094202	0.1134
560	5.2674	-0.083	0.040695	0.13472	0.14364	0.010102	0.25883	0.13913	0.041476	0.26436	-0.046816	-0.15316	-0.008669	-0.046816	0.031938	-0.008669	0	0	0	-0.15272	-0.0012066	0.049507	-0.11408	0.061868	0.14285	-0.13722	-0.09446	0.11279
561	5.2768	-0.082794	0.040259	0.13503	0.14365	0.0068866	0.25917	0.13944	0.03825	0.26497	-0.046816	-0.15316	-0.008669	-0.046816	0.031938	-0.008669	0	0	0	-0.15266	-0.0010521	0.049455	-0.11394	0.061411	0.14318	-0.13731	-0.094715	0.11219
562	5.2862	-0.082591	0.039819	0.13534	0.14363	0.0036739	0.2595	0.13971	0.035024	0.26557	-0.046816	-0.15316	-0.008669	-0.046816	0.031938	-0.008669	0	0	0	-0.1526	-0.00089635	0.049404	-0.11381	0.060954	0.14352	-0.1374	-0.094964	0.11158
563	5.2956	-0.082392	0.039376	0.13565	0.14357	0.00046534	0.25982	0.13994	0.031798	0.26616	-0.046816	-0.15316	-0.008669	-0.046816	0.031938	-0.008669	0	0	0	-0.15253	-0.00073944	0.049352	-0.11369	0.060495	0.14385	-0.13749	-0.095209	0.11096
564	5.3051	-0.082197	0.038931	0.13596	0.14348	-0.0027378	0.26013	0.14015	0.028574	0.26673	-0.046816	-0.15316	-0.008669	-0.046816	0.031938	-0.008669	0	0	0	-0.15247	-0.00058129	0.049301	-0.11356	0.060036	0.14418	-0.13758	-0.095448	0.11035
565	5.3145	-0.082006	0.038482	0.13626	0.14335	-0.0059342	0.26042	0.14031	0.025353	0.26729	-0.046816	-0.15316	-0.008669	-0.046816	0.031938	-0.008669	0	0	0	-0.15241	-0.00042184	0.04925	-0.11344	0.059576	0.1445	-0.13767	-0.095681	0.10973
566	5.3239	-0.081819	0.038032	0.13657	0.14319	-0.0091224	0.2607	0.14045	0.022138	0.26783	-0.046816	-0.15316	-0.008669	-0.046816	0.031938	-0.008669	0	0	0	-0.15234	-0.00026107	0.049199	-0.11332	0.059116	0.14483	-0.13776	-0.095909	0.10911
567	5.3333	-0.081638	0.037579	0.13688	0.143	-0.012301	0.26098	0.14054	0.018928	0.26836	-0.046816	-0.15316	-0.008669	-0.046816	0.031938	-0.008669	0	0	0	-0.15228	-9.8921e-05	0.049148	-0.11321	0.058656	0.14515	-0.13785	-0.096129	0.10849
568	5.3428	-0.081462	0.037125	0.13719	0.14277	-0.015469	0.26123	0.1406	0.015726	0.26888	-0.046816	-0.15316	-0.008669	-0.046816	0.031938	-0.008669	0	0	0	-0.15221	6.4647e-05	0.049097	-0.1131	0.058197	0.14548	-0.13794	-0.096343	0.10787
569	5.3522	-0.081291	0.036669	0.13749	0.14251	-0.018624	0.26148	0.14062	0.012533	0.26937	-0.046816	-0.15316	-0.008669	-0.046816	0.031938	-0.008669	0	0	0	-0.15215	0.00022968	0.049047	-0.11299	0.057738	0.14579	-0.13804	-0.09655	0.10724
570	5.3616	-0.081127	0.036212	0.1378	0.14221	-0.021766	0.26171	0.14061	0.0093508	0.26985	-0.046816	-0.15316	-0.008669	-0.046816	0.031938	-0.008669	0	0	0	-0.15208	0.00039622	0.048998	-0.11289	0.057279	0.14611	-0.13813	-0.096749	0.10662
571	5.371	-0.080968	0.035753	0.1381	0.14188	-0.024893	0.26193	0.14056	0.0061802	0.27032	-0.046816	-0.15316	-0.008669	-0.046816	0.031938	-0.008669	0	0	0	-0.15202	0.00056431	0.048949	-0.11279	0.056822	0.14642	-0.13822	-0.09694	0.106
572	5.3804	-0.080816	0.035294	0.1384	0.14151	-0.028003	0.26214	0.14047	0.0030227	0.27076	-0.046816	-0.15316	-0.008669	-0.046816	0.031938	-0.008669	0	0	0	-0.15195	0.00073399	0.0489	-0.11269	0.056367	0.14673	-0.13832	-0.097123	0.10537
573	5.3899	-0.080671	0.034835	0.1387	0.14111	-0.031095	0.26233	0.14034	-0.00012008	0.27119	-0.046816	-0.15316	-0.008669	-0.046816	0.031938	-0.008669	0	0	0	-0.15188	0.00090531	0.048852	-0.1126	0.055913	0.14704	-0.13841	-0.097297	0.10475
574	5.3993	-0.080533	0.034375	0.13901	0.14068	-0.034169	0.26251	0.14018	-0.0032469	0.27159	-0.046816	-0.15316	-0.008669	-0.046816	0.031938	-0.008669	0	0	0	-0.15182	0.0010783	0.048805	-0.11251	0.055461	0.14735	-0.13851	-0.097463	0.10413
575	5.4087	-0.080402	0.033915	0.1393	0.14021	-0.037222	0.26267	0.13997	-0.0063562	0.27198	-0.046816	-0.15316	-0.008669	-0.046816	0.031938	-0.008669	0	0	0	-0.15175	0.001253	0.048758	-0.11243	0.055011	0.14765	-0.13861	-0.097619	0.10351
576	5.4181	-0.080278	0.033456	0.1396	0.13971	-0.040252	0.26281	0.13973	-0.0094468	0.27235	-0.046816	-0.15316	-0.008669	-0.046816	0.031938	-0.008669	0	0	0	-0.15168	0.0014295	0.048712	-0.11235	0.054563	0.14794	-0.1387	-0.097765	0.10289
577	5.4276	-0.080163	0.032996	0.1399	0.13917	-0.04326	0.26294	0.13945	-0.012517	0.2727	-0.046816	-0.15316	-0.008669	-0.046816	0.031938	-0.008669	0	0	0	-0.15162	0.0016079	0.048667	-0.11228	0.054119	0.14824	-0.1388	-0.097901	0.10227
578	5.437	-0.080056	0.032538	0.1402	0.1386	-0.046243	0.26306	0.13913	-0.015566	0.27302	-0.046816	-0.15316	-0.008669	-0.046816	0.031938	-0.008669	0	0	0	-0.15155	0.001788	0.048623	-0.11221	0.053677	0.14853	-0.13891	-0.098026	0.10166
